<svg width="16" height="14" viewBox="0 0 16 14" fill="none" xmlns="http://www.w3.org/2000/svg">
<path d="M5.6 2.78675e-09C5.77584 -1.48831e-05 5.94678 0.0596077 6.0864 0.169647L6.1664 0.241294L8.3312 2.47059H13.6C14.2122 2.47055 14.8012 2.71133 15.2466 3.14365C15.692 3.57596 15.9601 4.16715 15.996 4.79624L16 4.94118V11.5294C16 12.1596 15.7661 12.766 15.3462 13.2244C14.9262 13.6829 14.3519 13.9589 13.7408 13.9959L13.6 14H2.4C1.78783 14 1.19879 13.7593 0.753391 13.3269C0.307994 12.8946 0.039914 12.3034 0.0040001 11.6744L3.72836e-09 11.5294V2.47059C-3.40974e-05 1.84041 0.23386 1.23405 0.653827 0.77555C1.07379 0.317053 1.64809 0.0410879 2.2592 0.00411774L2.4 2.78675e-09H5.6Z" fill="#BCB8B8"/>
</svg>
