<svg width="16" height="12" viewBox="0 0 16 12" fill="none" xmlns="http://www.w3.org/2000/svg">
<path d="M11.6 6C12.704 6 13.592 5.04 13.592 3.85714C13.592 2.67429 12.704 1.71429 11.6 1.71429C10.496 1.71429 9.6 2.67429 9.6 3.85714C9.6 5.04 10.496 6 11.6 6ZM5.6 5.14286C6.928 5.14286 7.992 3.99429 7.992 2.57143C7.992 1.14857 6.928 0 5.6 0C4.272 0 3.2 1.14857 3.2 2.57143C3.2 3.99429 4.272 5.14286 5.6 5.14286ZM11.6 7.71429C10.136 7.71429 7.2 8.50286 7.2 10.0714V12H16V10.0714C16 8.50286 13.064 7.71429 11.6 7.71429ZM5.6 6.85714C3.736 6.85714 0 7.86 0 9.85714V12H5.6V10.0714C5.6 9.34286 5.864 8.06571 7.496 7.09714C6.8 6.94286 6.128 6.85714 5.6 6.85714Z" fill="#BCB8B8"/>
</svg>
