<svg width="12" height="14" viewBox="0 0 12 14" fill="none" xmlns="http://www.w3.org/2000/svg">
<path d="M10.6667 1.4H7.88C7.6 0.588 6.86667 0 6 0C5.13333 0 4.4 0.588 4.12 1.4H1.33333C0.6 1.4 0 2.03 0 2.8V12.6C0 13.37 0.6 14 1.33333 14H10.6667C11.4 14 12 13.37 12 12.6V2.8C12 2.03 11.4 1.4 10.6667 1.4ZM6 1.4C6.36667 1.4 6.66667 1.715 6.66667 2.1C6.66667 2.485 6.36667 2.8 6 2.8C5.63333 2.8 5.33333 2.485 5.33333 2.1C5.33333 1.715 5.63333 1.4 6 1.4ZM7.33333 11.2H2.66667V9.8H7.33333V11.2ZM9.33333 8.4H2.66667V7H9.33333V8.4ZM9.33333 5.6H2.66667V4.2H9.33333V5.6Z" fill="#BCB8B8"/>
</svg>
