<svg width="14" height="14" viewBox="0 0 14 14" fill="none" xmlns="http://www.w3.org/2000/svg">
<path d="M12.3333 6.66667H11.3333V4C11.3333 3.26667 10.7333 2.66667 10 2.66667H7.33333V1.66667C7.33333 0.746667 6.58667 0 5.66667 0C4.74667 0 4 0.746667 4 1.66667V2.66667H1.33333C0.6 2.66667 0.00666666 3.26667 0.00666666 4V6.53333H1C1.99333 6.53333 2.8 7.34 2.8 8.33333C2.8 9.32667 1.99333 10.1333 1 10.1333H0V12.6667C0 13.4 0.6 14 1.33333 14H3.86667V13C3.86667 12.0067 4.67333 11.2 5.66667 11.2C6.66 11.2 7.46667 12.0067 7.46667 13V14H10C10.7333 14 11.3333 13.4 11.3333 12.6667V10H12.3333C13.2533 10 14 9.25333 14 8.33333C14 7.41333 13.2533 6.66667 12.3333 6.66667Z" fill="#BCB8B8"/>
</svg>
