<svg width="16" height="18" viewBox="0 0 16 18" fill="none" xmlns="http://www.w3.org/2000/svg">
<path d="M15.9982 9.01207C15.9706 7.96886 15.9925 6.92367 15.9925 5.87947V2.67461C15.9925 1.87239 15.9896 1.87818 15.2682 1.51469C14.0215 0.887978 12.6996 0.502311 11.3329 0.27963C8.82043 -0.131129 6.31268 -0.101234 3.81919 0.448359C2.54298 0.729889 1.31241 1.1358 0.187507 1.82903C0.0494906 1.91386 0 2.00835 0 2.17322C0.00571582 4.54315 -0.00283468 6.91308 0.0104558 9.28301C0.0133369 9.67155 0.0675674 10.0707 0.165619 10.4467C0.548161 11.9219 1.26482 13.2255 2.20988 14.4066C3.68405 16.2491 5.54657 17.462 7.83824 17.9817C7.93439 18.0039 8.04383 18.0068 8.13997 17.9856C9.48472 17.6944 10.7134 17.1352 11.8221 16.3137C13.3448 15.1837 14.4783 13.7239 15.2768 12.0019C15.7136 11.0599 16.0267 10.0813 15.9982 9.01207ZM2.09375 3.46425C2.02331 3.49415 1.95193 3.52211 1.84728 3.56453C3.09876 2.19346 4.39212 1.91288 6.06239 2.57527C6.22415 2.63986 6.38313 2.71316 6.54298 2.78354C6.89035 2.93396 7.10165 3.25504 7.09974 3.62912C7.09784 3.97717 6.87799 4.30211 6.55632 4.43421C6.22322 4.57111 5.84635 4.48242 5.58082 4.20475C5.55893 4.18159 5.53607 4.15941 5.51418 4.1363C4.40071 3.01494 3.5413 2.84621 2.09375 3.46425ZM7.07311 6.29795C6.1109 7.46842 3.75162 7.51855 2.69331 6.29602C3.76115 5.11492 6.09664 5.12259 7.07311 6.29795ZM8.89083 16.1151C8.88991 16.1643 8.85942 16.224 8.82424 16.2607C8.56062 16.5364 8.29221 16.8083 8.00103 17.1072C7.70501 16.8054 7.42141 16.5191 7.14254 16.2279C7.11401 16.199 7.10448 16.1402 7.10448 16.0958C7.10165 15.5433 7.10257 14.9908 7.10257 14.4201H8.89372C8.89372 14.9957 8.89562 15.5549 8.89083 16.1151ZM11.8811 11.3367C11.4566 11.9759 10.859 12.3529 10.1128 12.4869C9.41237 12.6123 8.7557 12.4879 8.15517 12.1013C8.03718 12.026 7.95911 12.029 7.84015 12.1013C6.54489 12.8841 5.03168 12.5959 4.14847 11.3646C3.67834 10.7109 3.27103 10.0109 2.83704 9.33122C2.78755 9.25212 2.75233 9.16442 2.74471 9.03905C2.96837 9.16442 3.19965 9.27722 3.41281 9.41798C3.96292 9.78242 4.51299 10.1469 5.04878 10.5326C5.7483 11.0378 6.51919 10.9992 7.14352 10.3975C7.42903 10.1209 7.70975 9.83835 8.00386 9.54815C8.24941 9.794 8.50253 10.0447 8.75287 10.2973C9.46284 11.0146 10.1785 11.0638 11.0075 10.4824C11.6127 10.0582 12.2371 9.66095 12.8547 9.25598C12.9794 9.17501 13.1164 9.11428 13.2478 9.0439C13.2754 9.068 13.303 9.09112 13.3296 9.11522C12.8471 9.85572 12.3694 10.6 11.8811 11.3367ZM8.92318 6.30369C9.93297 5.10621 12.2923 5.11779 13.2925 6.30275C12.3037 7.48 9.94343 7.50603 8.92318 6.30369ZM14.11 3.52983C13.7959 3.42471 13.4828 3.31384 13.1659 3.21742C12.3075 2.95806 11.5566 3.18272 10.8904 3.75637C10.6563 3.95792 10.4459 4.19317 10.1928 4.36576C9.79974 4.63476 9.24963 4.48049 9.01551 4.07166C8.77666 3.65323 8.90417 3.05735 9.3191 2.85106C9.9168 2.5531 10.5363 2.31304 11.2121 2.24652C12.0524 2.16456 12.7938 2.40461 13.4543 2.92045C13.6912 3.10556 13.9121 3.3129 14.1405 3.51053C14.13 3.51726 14.1205 3.52305 14.11 3.52983Z" fill="#2D2B2A"/>
</svg>
