<svg width="16" height="16" viewBox="0 0 16 16" fill="none" xmlns="http://www.w3.org/2000/svg">
<path fill-rule="evenodd" clip-rule="evenodd" d="M5.60445 0.182834C5.78581 0.364215 5.83774 0.638096 5.73534 0.873274C5.37289 1.70575 5.21985 2.71273 5.21985 3.74469C5.21985 7.63014 8.36986 10.7801 12.2553 10.7801C13.2873 10.7801 14.2943 10.6271 15.1267 10.2647C15.3619 10.1623 15.6358 10.2142 15.8172 10.3956C15.9985 10.5769 16.0505 10.8508 15.9481 11.086C14.6666 14.0301 11.67 16 8.28368 16C3.70885 16 0 12.2911 0 7.71632C0 4.32995 1.96993 1.33345 4.91402 0.0518842C5.1492 -0.0504925 5.42308 0.00145188 5.60445 0.182834Z" fill="#2D2B2A"/>
</svg>
